<svg width="186" height="54" viewBox="0 0 186 54" fill="none" xmlns="http://www.w3.org/2000/svg">
<path d="M25.4096 33.906L16.9732 22.3135H14.0742V38.7814H16.9972V27.1619L25.4352 38.7814H28.3342V22.3135H25.4096V33.906Z" fill="#252525"/>
<path d="M70.7286 22.3135L63.8008 38.7814H67.0082L68.8572 34.3565H75.5533L77.4023 38.7814H80.6097L73.6803 22.3135H70.7286ZM70.0206 31.5566L72.202 26.3039L74.3851 31.5709H70.0238L70.0206 31.5566Z" fill="#252525"/>
<path d="M95.7568 38.7814H98.6798V22.3135H95.7568V38.7814Z" fill="#252525"/>
<path d="M132.895 31.5629C132.448 30.978 131.869 30.5067 131.204 30.1876C130.523 29.8317 129.803 29.553 129.06 29.3568C128.318 29.1403 127.568 28.9493 126.809 28.7742C126.077 28.615 125.411 28.432 124.81 28.2394C124.347 28.0842 123.912 27.8564 123.52 27.5645C123.409 27.4675 123.321 27.3466 123.263 27.211C123.206 27.0754 123.179 26.9285 123.186 26.7813C123.19 26.5648 123.226 26.3501 123.295 26.1447C123.386 25.9206 123.528 25.721 123.711 25.5621C124.002 25.3146 124.343 25.1328 124.711 25.0289C125.329 24.8602 125.969 24.7841 126.61 24.8028C127.934 24.8028 128.801 25.0623 129.317 25.4777C129.567 25.6572 129.778 25.886 129.936 26.15C130.093 26.414 130.195 26.7074 130.234 27.0121L130.3 27.5454H133.24L133.199 26.9087C133.147 26.0348 132.86 25.1911 132.366 24.467C131.866 23.6918 131.124 23.0997 130.175 22.6572C129.226 22.2147 128.01 21.9823 126.61 21.9823C124.652 21.9823 123.062 22.3834 121.954 23.2907C121.428 23.7126 121.006 24.2495 120.722 24.8598C120.438 25.4701 120.298 26.1374 120.315 26.81C120.288 27.6052 120.522 28.3875 120.981 29.0384L120.997 29.0543C121.453 29.6161 122.028 30.0714 122.68 30.3882C123.367 30.721 124.084 30.9875 124.821 31.1841C125.567 31.3846 126.309 31.5767 127.046 31.7603H127.062C127.722 31.91 128.373 32.0965 129.012 32.319C129.48 32.4645 129.915 32.7021 130.29 33.0177L130.308 33.0352C130.429 33.1364 130.524 33.2644 130.586 33.409C130.648 33.5536 130.676 33.7107 130.666 33.8677C130.683 34.1717 130.614 34.4743 130.467 34.7412C130.319 35.008 130.1 35.2282 129.833 35.3767C129.216 35.7427 128.324 35.9608 127.116 35.9608C126.36 35.9695 125.606 35.8681 124.879 35.66C124.325 35.5095 123.819 35.2227 123.405 34.8259C123.051 34.4377 122.853 33.9336 122.848 33.4093L122.814 32.8426H119.814L119.874 33.5016C119.946 34.4655 120.252 35.3976 120.764 36.2187C121.348 37.0753 122.171 37.744 123.131 38.1431H123.147C124.179 38.5856 125.478 38.7941 127.019 38.7941C128.952 38.7941 130.551 38.4025 131.759 37.5525C133 36.6596 133.608 35.3767 133.608 33.7849C133.618 32.9869 133.368 32.2071 132.895 31.5629Z" fill="#252525"/>
<path d="M114.367 33.255C114.054 34.0551 113.501 34.7394 112.783 35.2144C112.085 35.6808 111.176 35.9386 110.011 35.9386C108.892 35.9386 107.962 35.6887 107.203 35.2224C106.457 34.7429 105.863 34.0638 105.488 33.2629C105.088 32.3658 104.881 31.3955 104.879 30.414C104.877 29.4325 105.082 28.4614 105.478 27.563C105.853 26.766 106.448 26.0922 107.195 25.6211C107.952 25.1436 108.878 24.8873 110.003 24.8873C111.16 24.8873 112.08 25.1468 112.775 25.6131C113.493 26.0878 114.046 26.7716 114.359 27.5709L114.508 27.9466H117.565L117.29 27.1507C116.96 26.1607 116.427 25.25 115.724 24.4766C115.019 23.7011 114.156 23.0841 113.192 22.6668C112.143 22.2078 111.007 21.9777 109.86 21.992C108.253 21.992 106.837 22.3676 105.629 23.1507C104.447 23.8968 103.493 24.9517 102.872 26.2005C102.257 27.5192 101.938 28.9558 101.938 30.4098C101.938 31.8638 102.257 33.3003 102.872 34.6191C103.491 35.8734 104.441 36.9364 105.621 37.6943C106.829 38.452 108.245 38.8276 109.852 38.8276C110.994 38.8466 112.127 38.6247 113.176 38.1766H113.184C114.144 37.7457 115.005 37.1251 115.716 36.3525C116.406 35.5738 116.936 34.6673 117.274 33.6848L117.549 32.8889H114.5L114.367 33.255Z" fill="#252525"/>
<path d="M78.8652 25.1563H84.823V38.7814H87.7459V25.1563H93.0197V22.3135H78.8652V25.1563Z" fill="#252525"/>
<path d="M61.8136 22.3135L56.9905 34.5697L52.1674 22.3135H48.9951L55.6001 38.7814H58.3824L64.997 22.3135H61.8136Z" fill="#252525"/>
<path d="M45.5469 24.4622C44.8106 23.6765 43.9158 23.0549 42.9212 22.6381C40.7626 21.7701 38.3501 21.7701 36.1916 22.6381C35.1917 23.0571 34.2899 23.6782 33.5435 24.4622C32.8176 25.2415 32.249 26.1526 31.8687 27.1458C31.0802 29.2476 31.0802 31.5622 31.8687 33.6639C32.2513 34.6561 32.8196 35.5667 33.5435 36.3476C34.2899 37.1316 35.1917 37.7527 36.1916 38.1717C38.3501 39.0397 40.7626 39.0397 42.9212 38.1717C43.9163 37.7567 44.811 37.1348 45.5453 36.3476C46.2843 35.5736 46.8622 34.6615 47.2457 33.6639C47.6402 32.6227 47.8406 31.5186 47.837 30.4057C47.8483 29.2916 47.6477 28.1855 47.2457 27.1458C46.8627 26.1484 46.2854 25.2364 45.5469 24.4622ZM44.2556 33.239C43.8416 34.0543 43.2073 34.7384 42.4242 35.2143C41.6491 35.6807 40.7078 35.9306 39.5588 35.9306C38.5544 35.9565 37.562 35.7088 36.6886 35.2143C35.9002 34.737 35.258 34.0538 34.8316 33.239C34.3966 32.3581 34.1775 31.3872 34.1923 30.4057C34.1737 29.4233 34.393 28.4509 34.8316 27.5708C35.254 26.7598 35.8977 26.0839 36.6886 25.621C37.552 25.1108 38.5424 24.8537 39.546 24.8792C40.687 24.8792 41.6235 25.1371 42.4018 25.621H42.4194C43.203 26.085 43.8381 26.7612 44.2508 27.5708C44.6841 28.4533 44.9093 29.4226 44.9093 30.4049C44.9093 31.3872 44.6841 32.3565 44.2508 33.239H44.2556Z" fill="#252525"/>
<path d="M157.465 6.98474V22.9146L171.789 38.8492V14.9568L157.465 6.98474Z" fill="#FFCC00"/>
<path d="M157.465 30.8804L171.789 38.8429L157.465 22.9147V30.8804Z" fill="#FF9D00"/>
<path d="M143.138 14.9569V38.8429L157.465 46.815V30.8803V22.9082L143.138 14.9569Z" fill="#832AF5"/>
</svg>
